<?xml version="1.0" standalone="no"?>
<!DOCTYPE svg PUBLIC "-//W3C//DTD SVG 20010904//EN"
 "http://www.w3.org/TR/2001/REC-SVG-20010904/DTD/svg10.dtd">
<svg version="1.0" xmlns="http://www.w3.org/2000/svg"
 width="180.000000pt" height="180.000000pt" viewBox="0 0 180.000000 180.000000"
 preserveAspectRatio="xMidYMid meet">
<metadata>
Created by potrace 1.11, written by Peter Selinger 2001-2013
</metadata>
<g transform="translate(0.000000,180.000000) scale(0.100000,-0.100000)"
fill="#000000" stroke="none">
<path d="M1534 1739 c-135 -17 -173 -46 -279 -208 -206 -317 -388 -679 -531
-1058 l-27 -72 -80 112 c-141 199 -232 296 -277 298 -16 1 -36 2 -42 3 -25 4
-114 -26 -150 -50 -63 -44 -59 -64 32 -165 109 -120 139 -156 216 -262 29 -39
57 -76 61 -82 5 -5 29 -44 55 -85 69 -112 71 -113 187 -114 136 -1 140 2 211
180 30 77 56 142 57 144 1 3 5 14 9 25 27 73 218 475 254 535 5 8 44 76 86
150 92 164 106 186 262 419 67 101 122 189 122 196 0 33 -68 47 -166 34z"/>
</g>
</svg>
